<svg width="53" height="45" viewBox="0 0 53 45" fill="none" xmlns="http://www.w3.org/2000/svg">
<path d="M2.79168 6.28337C4.33348 6.28337 5.58336 5.03349 5.58336 3.49169C5.58336 1.94989 4.33348 0.700012 2.79168 0.700012C1.24988 0.700012 0 1.94989 0 3.49169C0 5.03349 1.24988 6.28337 2.79168 6.28337Z" fill="#56E247"/>
<path d="M6.591 6.28337C8.1328 6.28337 9.38268 5.03349 9.38268 3.49169C9.38268 1.94989 8.1328 0.700012 6.591 0.700012C5.04919 0.700012 3.79932 1.94989 3.79932 3.49169C3.79932 5.03349 5.04919 6.28337 6.591 6.28337Z" fill="#56E247"/>
<path d="M41.7177 6.50843L28.9188 12.9123C21.8192 16.4621 17.654 21.1268 16.548 26.7726C14.9693 34.7731 20.8024 43.7546 22.6487 44.5306C22.9073 44.6376 23.1838 44.7 23.4692 44.7C37.7309 44.7 46.9443 37.1634 46.9443 25.4972C46.9443 11.2177 45.0267 7.74818 44.1883 6.9187C43.5372 6.25869 42.5472 6.09815 41.7177 6.50843ZM25.5028 40.3475C25.4582 32.7752 30.0694 25.961 37.1154 23.1782C38.2036 22.7323 38.7209 21.4836 38.2749 20.3955C37.829 19.3073 36.5803 18.79 35.4922 19.236C35.4743 19.2449 35.4565 19.2538 35.4387 19.2627C28.3926 22.0187 23.2462 28.1908 21.7924 35.6204C20.6597 33.0963 20.2851 30.2957 20.74 27.5575C21.5962 23.2942 24.9855 19.6463 30.8275 16.7297L41.5572 11.3604C42.4669 16.0073 42.8415 20.7522 42.672 25.4883C42.672 34.1576 36.1433 39.7232 25.5028 40.3475ZM5.38128 11.3604C4.47154 16.0073 4.09693 20.7522 4.2664 25.4883C4.12369 31.473 7.90539 36.8512 13.5869 38.7421C14.6928 39.1613 15.2458 40.3921 14.8355 41.4891C14.4163 42.5951 13.1855 43.1481 12.0884 42.7378C12.0706 42.7289 12.0528 42.72 12.026 42.7111C4.71235 40.178 -0.13964 33.2211 0.0030654 25.4883C0.0030654 11.2088 1.92067 7.73926 2.75907 6.90979C3.41016 6.25869 4.40018 6.09815 5.22074 6.50843L18.0196 12.9123C19.081 13.4386 19.5091 14.7229 18.9829 15.7843C18.4567 16.8457 17.1723 17.2738 16.111 16.7476L5.38128 11.3604Z" fill="#56E247"/>
<path d="M48.9775 13.9181C51.0858 13.9181 52.7949 12.209 52.7949 10.1008C52.7949 7.99248 51.0858 6.28339 48.9775 6.28339C46.8693 6.28339 45.1602 7.99248 45.1602 10.1008C45.1602 12.209 46.8693 13.9181 48.9775 13.9181Z" fill="#56E247"/>
</svg>
