<svg width="44" height="45" viewBox="0 0 44 45" fill="none" xmlns="http://www.w3.org/2000/svg">
<path fill-rule="evenodd" clip-rule="evenodd" d="M18.84 3.08871C19.2369 1.7109 20.5024 0.700012 22.0075 0.700012C22.8911 0.700012 23.7223 1.05195 24.3438 1.66598C24.7406 2.06284 25.0252 2.55706 25.1824 3.08871L34.3479 5.12547C34.857 5.23779 35.209 5.68708 35.209 6.20376V9.506C35.209 10.1125 34.7148 10.6068 34.1082 10.6068H25.3022V11.7599C26.5602 12.022 27.5037 13.1377 27.5037 14.4781V16.103H29.1511C29.8775 16.103 30.5813 16.3876 31.098 16.9042C31.6147 17.4209 31.8993 18.1173 31.8993 18.8511C31.8993 19.585 31.6147 20.2814 31.098 20.798C30.9183 20.9778 30.7161 21.1275 30.4915 21.2473C31.0231 22.0036 31.6596 22.9396 32.1314 23.7783C32.3635 24.1752 32.5507 24.5571 32.693 24.9015H38.5487C38.661 24.3699 38.9156 23.8906 39.2975 23.5012C39.8142 22.9846 40.5106 22.7 41.2444 22.7C41.9707 22.7 42.6746 22.9846 43.1913 23.5012C43.708 24.0179 43.9925 24.7143 43.9925 25.4481V39.7504C43.9925 40.4767 43.708 41.1806 43.1913 41.6973C42.6746 42.214 41.9782 42.4985 41.2444 42.4985C40.5106 42.4985 39.8142 42.214 39.2975 41.6973C38.9156 41.3154 38.661 40.8287 38.5487 40.297H31.8543C31.45 40.8436 30.9408 41.3678 30.3717 41.8396C28.1777 43.6142 24.8679 44.7 21.9925 44.7C19.1171 44.7 15.8074 43.6142 13.6133 41.8396C13.0293 41.3678 12.5351 40.8511 12.1307 40.297H5.44384C5.33152 40.8287 5.07692 41.3079 4.69503 41.6973C4.17835 42.214 3.48196 42.4985 2.74813 42.4985C2.02178 42.4985 1.3179 42.214 0.801225 41.6973C0.284547 41.1806 0 40.4842 0 39.7504V25.4481C0 24.7218 0.284547 24.0179 0.801225 23.5012C1.3179 22.9846 2.0143 22.7 2.74813 22.7C3.48196 22.7 4.17835 22.9846 4.69503 23.5012C5.07692 23.8831 5.33152 24.3699 5.44384 24.9015H11.2995C11.4418 24.5571 11.629 24.1752 11.8611 23.7783C12.3479 22.9546 12.9694 22.0036 13.501 21.2473C13.2839 21.1275 13.0817 20.9703 12.8945 20.798C12.3778 20.2814 12.0933 19.585 12.0933 18.8511C12.0933 18.1173 12.3778 17.4209 12.8945 16.9042C13.4112 16.3876 14.1076 16.103 14.8414 16.103H16.4888V14.4781C16.4888 13.1452 17.4323 12.022 18.6903 11.7599V10.6068H9.89176C9.28523 10.6068 8.79101 10.1125 8.79101 9.506V6.19627C8.79101 5.67959 9.15793 5.23779 9.65214 5.11798L18.8176 3.08122L18.84 3.08871ZM15.9721 21.5993C15.4629 22.3031 14.452 23.7109 13.7781 24.879C13.516 25.3433 13.2464 25.9648 13.2165 26.0472V37.0023C13.2165 38.2228 13.9653 39.2786 15.0361 40.1398C16.8632 41.6149 19.6263 42.506 22.0225 42.506C24.4187 42.506 27.1967 41.6149 29.0088 40.1398C30.0796 39.2786 30.8285 38.2228 30.8285 37.0023V26.0472C30.7985 25.9723 30.5289 25.3433 30.2668 24.879C29.5854 23.7109 28.582 22.3031 28.0728 21.5993H15.9796H15.9721ZM14.3097 28.2038V35.9015C14.3097 37.6088 15.3805 38.9042 16.7508 39.7953C18.5031 40.941 20.7046 41.3828 20.7046 41.3828C21.2961 41.5026 21.8802 41.1207 22 40.5217C22.1198 39.9301 21.7379 39.346 21.1389 39.2262C21.1389 39.2262 19.3642 38.8743 17.9564 37.9607C17.2076 37.474 16.5262 36.8375 16.5262 35.9015V28.2038C16.5262 27.5972 16.032 27.103 15.4255 27.103C14.8189 27.103 14.3247 27.5972 14.3247 28.2038H14.3097ZM2.74813 40.3045C2.60585 40.3045 2.46358 40.2521 2.36624 40.1398C2.26889 40.0424 2.2015 39.9001 2.2015 39.7579V25.4556C2.2015 25.3134 2.25391 25.1711 2.36624 25.0737C2.46358 24.9764 2.60585 24.909 2.74813 24.909C2.8904 24.909 3.03268 24.9614 3.13002 25.0737C3.22737 25.1711 3.29476 25.3134 3.29476 25.4556V39.7579C3.29476 39.9001 3.24234 40.0424 3.13002 40.1398C3.03268 40.2371 2.8904 40.3045 2.74813 40.3045ZM41.2743 40.3045C41.1321 40.3045 40.9898 40.2521 40.8924 40.1398C40.7876 40.0349 40.7202 39.8927 40.7202 39.7504V25.4481C40.7202 25.3059 40.7726 25.1636 40.885 25.0662C40.9823 24.9689 41.1246 24.9015 41.2668 24.9015C41.4091 24.9015 41.5514 24.9539 41.6487 25.0662C41.7461 25.1636 41.8135 25.3059 41.8135 25.4481V39.7504C41.8135 39.8927 41.7611 40.0349 41.6487 40.1323C41.5589 40.2371 41.4166 40.3045 41.2743 40.3045ZM32.8952 38.103H38.5187V27.103H33.015V37.0023C33.015 37.3767 32.97 37.7361 32.8952 38.103ZM11.0075 27.103H5.50374V38.103H11.1273C11.0524 37.7436 11.0075 37.3767 11.0075 37.0023V27.103ZM29.1661 18.297H14.8564C14.7141 18.297 14.5718 18.3494 14.4745 18.4618C14.3771 18.5591 14.3097 18.7014 14.3097 18.8436C14.3097 18.9859 14.3622 19.1282 14.4745 19.2255C14.5718 19.3229 14.7141 19.3903 14.8564 19.3903H29.1661C29.3084 19.3903 29.4506 19.3379 29.548 19.2255C29.6453 19.1282 29.7127 18.9859 29.7127 18.8436C29.7127 18.7014 29.6603 18.5591 29.548 18.4618C29.4506 18.3644 29.3084 18.297 29.1661 18.297ZM19.2818 13.9015H24.7406C25.0626 13.9015 25.3097 14.1561 25.3097 14.4706V16.0955H18.7052V14.4706C18.7127 14.1486 18.9598 13.9015 19.2818 13.9015ZM23.1082 11.7V3.99477C23.1082 3.69525 22.9884 3.42568 22.7862 3.21601C22.5766 3.00634 22.2995 2.89402 22.0075 2.89402C21.401 2.89402 20.9067 3.38824 20.9067 3.99477V11.6925H23.1082V11.7ZM25.3097 5.37258V8.39777H33.015V7.07986L25.3097 5.36509V5.37258ZM18.7127 8.39777V5.37258L11.0075 7.08735V8.40525H18.7127V8.39777Z" fill="#56E247"/>
</svg>
