<svg width="47" height="45" viewBox="0 0 47 45" fill="none" xmlns="http://www.w3.org/2000/svg">
<path d="M41.4443 16.0711C41.7289 11.0427 38.3134 6.40168 33.3877 5.35805C31.8697 4.97854 30.3517 4.97854 28.8337 5.35805C26.3669 2.60664 22.7695 0.898869 19.0693 0.709117C11.2025 0.432395 4.46632 6.49656 4.08681 14.3634C4.08681 15.407 4.08681 16.3558 4.27656 17.3994C1.71491 19.0123 0.102016 21.6688 0.00713961 24.697C-0.0877365 27.1637 0.766149 29.4408 2.37904 31.2355C3.99194 33.0382 6.26896 34.0818 8.72784 34.1767L36.5028 34.2715C36.6926 34.2715 36.7874 34.2715 36.9772 34.2715C39.444 34.2715 41.721 33.4177 43.5157 31.7099C45.4133 30.0021 46.5518 27.5353 46.6467 24.9816C46.8522 21.2893 44.765 17.7789 41.4443 16.0711ZM42.2033 30.2947C40.6853 31.7178 38.6929 32.3819 36.6135 32.2871L8.83062 32.1922C4.84582 32.0024 1.81769 28.6818 1.91257 24.7049C2.00744 22.1432 3.52546 19.8662 5.80249 18.6407C6.18199 18.451 6.37175 17.9766 6.27687 17.5971C6.08712 16.5534 5.99224 15.5098 5.99224 14.3713C6.27687 7.73786 11.7718 2.51967 18.4131 2.51967C18.6029 2.51967 18.7926 2.51967 18.9824 2.51967C22.3979 2.70942 25.7107 4.22744 27.8928 6.88397C28.1774 7.1686 28.5569 7.26348 28.8416 7.1686C30.1698 6.7891 31.593 6.7891 33.0161 7.07372C37.0009 7.92761 39.8393 11.7227 39.5547 15.8893C39.5547 15.9842 39.5547 16.1739 39.5547 16.3637V16.4586C39.5547 16.6483 39.6495 16.9329 39.7444 17.1227C39.7444 17.2176 39.8393 17.2176 39.8393 17.2176C39.9342 17.3124 40.0291 17.3124 40.1239 17.4073C43.0651 18.6407 44.8677 21.6767 44.7729 24.8946C44.6701 26.974 43.7213 28.9664 42.2033 30.2947Z" fill="#B833E7"/>
<path d="M13.2895 35.8844C12.8151 35.6947 12.2459 35.8844 12.0561 36.3588L8.64058 43.2769C8.45083 43.7512 8.64059 44.3205 9.11497 44.5102C9.20984 44.6051 9.39959 44.6051 9.49447 44.6051C9.87397 44.6051 10.1586 44.4154 10.3484 44.0359L13.7639 37.1178C13.9536 36.7383 13.7639 36.169 13.2895 35.8844Z" fill="#B833E7"/>
<path d="M18.7843 35.8844C18.31 35.6947 17.7407 35.8844 17.5509 36.3588L14.1354 43.2769C14.0405 43.3717 14.0405 43.5615 14.0405 43.6564C14.0405 44.0359 14.2303 44.3205 14.6098 44.5102C14.7047 44.6051 14.8944 44.6051 14.9893 44.6051C15.3688 44.6051 15.6534 44.4154 15.8432 44.0359L19.2587 37.1178C19.3536 37.0229 19.3536 36.8332 19.3536 36.7383C19.3536 36.4537 19.1638 36.0742 18.7843 35.8844Z" fill="#B833E7"/>
<path d="M24.3826 35.8844C23.9082 35.6947 23.339 35.8844 23.1492 36.3588L19.7337 43.2769C19.6388 43.4666 19.5439 43.5615 19.5439 43.7512C19.5439 44.1307 19.7337 44.4154 20.1132 44.6051C20.2081 44.7 20.3978 44.7 20.4927 44.7C20.8722 44.7 21.1568 44.5102 21.3466 44.1307L24.7621 37.2127C24.857 37.1178 24.857 36.9281 24.857 36.8332C24.857 36.4537 24.6673 36.0742 24.3826 35.8844Z" fill="#B833E7"/>
<path d="M29.8771 35.8844C29.4027 35.6947 28.8335 35.8844 28.6437 36.3588L25.2282 43.2769C25.1333 43.3717 25.1333 43.5615 25.1333 43.6564C25.1333 44.0359 25.3231 44.3205 25.7026 44.5102C25.7974 44.6051 25.9872 44.6051 26.0821 44.6051C26.4616 44.6051 26.7462 44.4154 26.9359 44.0359L30.3515 37.1178C30.4464 37.0229 30.4464 36.8332 30.4464 36.7383C30.4464 36.4537 30.2566 36.0742 29.8771 35.8844Z" fill="#B833E7"/>
<path d="M35.4753 35.8844C35.0009 35.6947 34.4316 35.8844 34.2419 36.3588L30.8263 43.2769C30.7314 43.3717 30.7314 43.5615 30.7314 43.6564C30.7314 44.0359 30.9212 44.3205 31.3007 44.5102C31.3956 44.6051 31.5853 44.6051 31.6802 44.6051C32.0597 44.6051 32.3443 44.4154 32.5341 44.0359L35.9496 37.1178C36.0445 37.0229 36.0445 36.8332 36.0445 36.7383C36.0445 36.4537 35.7599 36.0742 35.4753 35.8844Z" fill="#B833E7"/>
<path d="M18.8798 14.5531C19.9234 14.5531 20.6824 14.8378 21.1568 15.0275L21.6312 13.5095C21.0619 13.2249 20.0183 12.9402 18.8798 12.9402C15.2745 12.9402 13.0054 15.407 13.0054 18.7198C13.0054 22.0325 15.1875 24.3096 18.4133 24.3096C19.9313 24.3096 21.0698 23.9301 21.5442 23.6454L21.1647 22.1274C20.5955 22.412 19.8365 22.6967 18.6979 22.6967C16.5158 22.6967 14.9029 21.1787 14.9029 18.617C14.9899 16.4507 16.3181 14.5531 18.8798 14.5531Z" fill="#B833E7"/>
<path d="M28.4538 12.9481C25.4178 12.9481 23.0459 15.1303 23.0459 18.7277C23.0459 22.1432 25.3229 24.3174 28.2641 24.3174C30.9206 24.3174 33.672 22.5148 33.672 18.5379C33.672 15.2172 31.5848 12.9481 28.4538 12.9481ZM28.359 22.9022C26.3666 22.9022 25.0383 21.0996 25.0383 18.7277C25.0383 16.6404 26.0819 14.4582 28.4538 14.4582C30.8257 14.4582 31.7745 16.8301 31.7745 18.6328C31.6796 21.0996 30.2565 22.9022 28.359 22.9022Z" fill="#B833E7"/>
<path d="M35.4753 24.4123L35.8548 24.1277C36.8036 23.2738 37.3728 22.6097 37.3728 21.7558C37.3728 21.0917 36.9933 20.5224 36.0446 20.5224C35.5702 20.5224 35.0958 20.7122 34.8112 20.9968L35.0009 21.3763C35.1907 21.1865 35.5702 20.9968 35.9497 20.9968C36.6138 20.9968 36.8036 21.3763 36.8036 21.8507C36.8036 22.5148 36.3292 23.0841 35.1907 24.1277L34.7163 24.5072V24.8867H37.5626V24.4123H35.4753Z" fill="#B833E7"/>
</svg>
