<svg width="40" height="45" viewBox="0 0 40 45" fill="none" xmlns="http://www.w3.org/2000/svg">
<path d="M37.6326 5.21592H1.5053C0.677386 5.21592 0 4.53853 0 3.71062V2.20531C0 1.3774 0.677386 0.700012 1.5053 0.700012H37.6326C38.4605 0.700012 39.1379 1.3774 39.1379 2.20531V3.71062C39.1379 4.53853 38.4605 5.21592 37.6326 5.21592Z" fill="#E71E57"/>
<path d="M37.6326 11.7941H1.5053C0.677386 11.7941 0 11.1167 0 10.2888V8.7835C0 7.95558 0.677386 7.2782 1.5053 7.2782H37.6326C38.4605 7.2782 39.1379 7.95558 39.1379 8.7835V10.2888C39.1379 11.1242 38.4605 11.7941 37.6326 11.7941Z" fill="#F02A63"/>
<path d="M37.6326 18.3798H1.5053C0.677386 18.3798 0 17.7024 0 16.8745V15.3692C0 14.5413 0.677386 13.8639 1.5053 13.8639H37.6326C38.4605 13.8639 39.1379 14.5413 39.1379 15.3692V16.8745C39.1379 17.7024 38.4605 18.3798 37.6326 18.3798Z" fill="#EC4977"/>
<path d="M37.6326 24.9579H1.5053C0.677386 24.9579 0 24.2805 0 23.4526V21.9473C0 21.1194 0.677386 20.442 1.5053 20.442H37.6326C38.4605 20.442 39.1379 21.1194 39.1379 21.9473V23.4526C39.1379 24.2805 38.4605 24.9579 37.6326 24.9579Z" fill="#EB6289"/>
<path d="M37.6326 31.5362H1.5053C0.677386 31.5362 0 30.8588 0 30.0309V28.5256C0 27.6976 0.677386 27.0203 1.5053 27.0203H37.6326C38.4605 27.0203 39.1379 27.6976 39.1379 28.5256V30.0309C39.1379 30.8663 38.4605 31.5362 37.6326 31.5362Z" fill="#EF7497"/>
<path d="M37.6326 38.1219H1.5053C0.677386 38.1219 0 37.4445 0 36.6166V35.1113C0 34.2833 0.677386 33.606 1.5053 33.606H37.6326C38.4605 33.606 39.1379 34.2833 39.1379 35.1113V36.6166C39.1379 37.4445 38.4605 38.1219 37.6326 38.1219Z" fill="#EFA1B7"/>
<path d="M37.6326 44.7001H1.5053C0.677386 44.7001 0 44.0227 0 43.1947V41.6894C0 40.8615 0.677386 40.1841 1.5053 40.1841H37.6326C38.4605 40.1841 39.1379 40.8615 39.1379 41.6894V43.1947C39.1379 44.0302 38.4605 44.7001 37.6326 44.7001Z" fill="#FACBD8"/>
</svg>
