<svg width="44" height="45" viewBox="0 0 44 45" fill="none" xmlns="http://www.w3.org/2000/svg">
<path d="M44.0002 18.3824H39.0205V20.1068H44.0002V18.3824Z" fill="#18CDEA"/>
<path d="M37.9792 5.30415L34.458 8.82532L35.6773 10.0446L39.1984 6.52342L37.9792 5.30415Z" fill="#18CDEA"/>
<path d="M35.6753 28.4543L34.4561 29.6735L37.9772 33.1947L39.1965 31.9754L35.6753 28.4543Z" fill="#18CDEA"/>
<path d="M26.1101 0.5H24.3857V5.47973H26.1101V0.5Z" fill="#18CDEA"/>
<path d="M26.0133 26.4764C29.6627 26.0973 32.5167 22.998 32.5167 19.252C32.5167 15.246 29.2613 11.9906 25.2552 11.9906C24.9654 11.998 24.6755 12.0129 24.3931 12.05V10.3108C24.6829 10.2811 24.9728 10.2662 25.2627 10.2662C30.2127 10.2662 34.2485 14.302 34.2485 19.2595C34.2485 23.9642 30.6214 27.8291 26.0208 28.223V26.4764H26.0133Z" fill="#18CDEA"/>
<path d="M10.6211 38.0189C8.88191 38.0189 7.3211 36.9189 6.74137 35.2764C6.37718 34.2433 6.43664 33.121 6.90488 32.1325C7.38056 31.1439 8.21299 30.3933 9.2461 30.0291L9.75151 29.8507V8.6311H11.4758V29.8433L11.9812 30.0216C13.1556 30.4379 14.0697 31.3521 14.486 32.5264C15.2441 34.6669 14.1143 37.023 11.9812 37.7811C11.5502 37.9372 11.0893 38.0189 10.6211 38.0189Z" fill="#18CDEA"/>
<path d="M10.6061 44.5C4.76419 44.5 0.00743243 39.7433 0 33.9014C0 31.1068 1.0777 28.4608 3.03243 26.4689L3.24797 26.246V7.87299C3.24797 3.81488 6.55541 0.507446 10.6135 0.507446C14.6716 0.507446 17.9791 3.81488 17.9791 7.87299V26.246L18.1946 26.4689C22.2899 30.646 22.223 37.3723 18.0459 41.4676C16.0541 43.4223 13.4155 44.5 10.6209 44.5H10.6061ZM4.6973 27.2642C2.92838 28.8473 1.88041 31.025 1.74662 33.396C1.61284 35.7669 2.41554 38.0487 3.99122 39.8176C5.67838 41.7054 8.09392 42.7831 10.6209 42.7831C12.8061 42.7831 14.9095 41.9804 16.5446 40.5237C20.2014 37.2534 20.5135 31.627 17.2507 27.9703C17.0277 27.725 16.7899 27.4872 16.5446 27.2642L16.2622 27.0115V7.87299C16.2622 4.76623 13.7277 2.2392 10.6209 2.23177C7.51419 2.23177 4.98716 4.76623 4.97973 7.87299V27.0115L4.6973 27.2642Z" fill="#18CDEA"/>
</svg>
