<svg width="39" height="45" viewBox="0 0 39 45" fill="none" xmlns="http://www.w3.org/2000/svg">
<path d="M11.4197 44.6027C11.5395 44.6626 11.6818 44.7 11.8166 44.7C12.0787 44.7 12.3482 44.5802 12.513 44.3556L32.282 18.8355C32.4842 18.5734 32.5291 18.214 32.3794 17.9145C32.2296 17.6149 31.9226 17.4202 31.5856 17.4202H23.4983L27.6468 1.80717C27.7516 1.4028 27.5569 0.968483 27.1825 0.788764C26.8081 0.609046 26.3438 0.706393 26.0892 1.04337L6.52984 26.8555C6.32766 27.1175 6.29022 27.477 6.43998 27.7765C6.58975 28.076 6.89677 28.2707 7.23374 28.2707H15.2986L10.9629 43.5843C10.8506 43.9886 11.0453 44.4229 11.4197 44.6027ZM17.313 27.6342C17.3953 27.3721 17.3279 27.0801 17.1707 26.8629C17.0059 26.6458 16.7513 26.511 16.4668 26.511H9.00846L24.7937 5.67112L21.5064 18.0792C21.439 18.3413 21.4989 18.6258 21.6562 18.843C21.8209 19.0602 22.0755 19.1875 22.3526 19.1875H29.7884L13.8908 39.6978L17.313 27.6342Z" fill="#B833E7"/>
<path d="M18.2488 42.0791C18.6382 42.1091 19.0201 42.1165 19.4095 42.1165C30.1103 42.1165 38.8191 33.4077 38.8191 22.7069C38.8191 15.8701 35.3371 9.66984 29.4812 6.11291C29.0694 5.85831 28.5227 5.9931 28.2756 6.40495C28.021 6.81681 28.1558 7.36345 28.5677 7.61057C33.8843 10.8455 37.0594 16.4842 37.0594 22.6994C37.0594 32.4342 29.1368 40.3493 19.4095 40.3493C19.0501 40.3493 18.6981 40.3418 18.3462 40.3119C17.8445 40.2969 17.4401 40.6563 17.4101 41.1356C17.3877 41.6373 17.7621 42.0566 18.2488 42.0791Z" fill="#B833E7"/>
<path d="M9.20309 39.2186C9.34537 39.3084 9.51011 39.3534 9.66736 39.3534C9.95941 39.3534 10.2514 39.2036 10.4162 38.9415C10.6708 38.5296 10.551 37.983 10.1316 37.7284C4.88984 34.4785 1.75226 28.8698 1.75226 22.7069C1.75974 12.9722 9.67485 5.05705 19.4096 5.05705C19.7241 5.05705 20.0311 5.06453 20.3456 5.087C20.8324 5.11695 21.2442 4.74254 21.2667 4.24831C21.2967 3.76158 20.9222 3.34972 20.428 3.32726C20.0985 3.30479 19.7541 3.2973 19.4096 3.2973C8.70886 3.2973 0 12.0062 0 22.7069C0 29.4838 3.43712 35.6467 9.20309 39.2186Z" fill="#B833E7"/>
</svg>
