<svg width="40" height="45" viewBox="0 0 40 45" fill="none" xmlns="http://www.w3.org/2000/svg">
<path d="M33.1486 25.662C31.3298 14.5106 17.8303 1.46587 17.2191 0.929166C16.9135 0.623546 16.4588 0.623546 16.1606 0.929166C15.4748 1.54041 0 16.404 0 28.0101C0 37.1862 7.50633 44.7 16.6898 44.7C19.269 44.7 21.7736 44.0962 24.0471 42.9557C25.6423 44.0142 27.5356 44.7 29.5855 44.7C35.0494 44.7 39.4474 40.302 39.4474 34.8381C39.4474 30.6638 36.8682 27.1007 33.1486 25.662ZM16.6898 43.1868C8.34865 43.1868 1.52065 36.3588 1.52065 28.0176C1.52065 18.2303 13.9616 5.26003 16.6898 2.52435C19.1944 5.02895 29.5855 15.8747 31.5609 25.2073C30.8751 25.0583 30.2713 24.9763 29.5855 24.9763C24.1216 24.9763 19.7237 29.3742 19.7237 34.8381C19.7237 37.6483 20.8642 40.1455 22.7575 41.8897C20.8642 42.7246 18.8143 43.1868 16.6898 43.1868ZM29.5855 43.1868C24.9565 43.1868 21.2443 39.4671 21.2443 34.8456C21.2443 30.224 24.964 26.5044 29.5855 26.5044C34.2071 26.5044 37.9267 30.224 37.9267 34.8456C37.9267 39.4671 34.2146 43.1868 29.5855 43.1868Z" fill="#E7577F"/>
<path d="M16.6896 39.3926C10.3909 39.3926 5.31459 34.3089 5.31459 28.0176C5.31459 27.5629 5.00897 27.2573 4.55427 27.2573C4.09957 27.2573 3.79395 27.5629 3.79395 28.0176C3.79395 35.1512 9.55601 40.9133 16.6896 40.9133C17.1443 40.9133 17.45 40.6076 17.45 40.1529C17.45 39.6908 17.1443 39.3926 16.6896 39.3926Z" fill="#E7577F"/>
<path d="M32.1648 28.845C31.7846 28.6959 31.3299 28.845 31.1808 29.2251L26.6263 39.8473C26.4773 40.2275 26.6263 40.6822 27.0065 40.8312C27.081 40.9058 27.2376 40.9058 27.3121 40.9058C27.6177 40.9058 27.9159 40.7567 27.9979 40.4511L32.5524 29.8289C32.694 29.4562 32.5449 29.0015 32.1648 28.845Z" fill="#E7577F"/>
<path d="M28.8249 31.8043C28.8249 30.5147 27.8409 29.5308 26.5513 29.5308C25.2618 29.5308 24.2778 30.5147 24.2778 31.8043C24.2778 33.0938 25.2618 34.0778 26.5513 34.0778C27.8409 34.0778 28.8249 33.0938 28.8249 31.8043ZM25.791 31.8043C25.791 31.3496 26.0966 31.044 26.5513 31.044C27.0061 31.044 27.3117 31.3496 27.3117 31.8043C27.3117 32.259 27.0061 32.5646 26.5513 32.5646C26.0966 32.5646 25.791 32.259 25.791 31.8043Z" fill="#E7577F"/>
<path d="M32.6192 35.5984C31.3297 35.5984 30.3457 36.5824 30.3457 37.872C30.3457 39.1615 31.3297 40.1455 32.6192 40.1455C33.9088 40.1455 34.8927 39.1615 34.8927 37.872C34.8927 36.5824 33.9088 35.5984 32.6192 35.5984ZM32.6192 38.6323C32.1645 38.6323 31.8589 38.3267 31.8589 37.872C31.8589 37.4173 32.1645 37.1116 32.6192 37.1116C33.0739 37.1116 33.3795 37.4173 33.3795 37.872C33.3795 38.3267 33.0739 38.6323 32.6192 38.6323Z" fill="#E7577F"/>
</svg>
