<svg width="45" height="45" viewBox="0 0 45 45" fill="none" xmlns="http://www.w3.org/2000/svg">
<path d="M41.6844 12.8015C41.5195 12.4793 41.1898 12.277 40.8302 12.277C40.6803 12.277 40.5379 12.3144 40.403 12.3819C39.9385 12.6217 39.7436 13.1911 39.9834 13.6632C42.3962 18.4664 42.8009 23.9214 41.1074 29.0243C39.4214 34.1271 35.8472 38.2709 31.0441 40.6837C28.2566 42.0849 25.1244 42.8267 22.0073 42.8267C17.5114 42.8267 13.1428 41.3206 9.61354 38.5556H11.9065C12.431 38.5556 12.8581 38.1285 12.8581 37.604C12.8581 37.0794 12.431 36.6523 11.9065 36.6523H6.92349L6.75863 36.6823L6.56381 36.7797C6.45891 36.8471 6.36899 36.9371 6.27907 37.0869C6.2491 37.1244 6.22662 37.1693 6.21913 37.2593L6.16667 37.3267L6.15918 37.4166V42.3996C6.15918 42.9241 6.58629 43.3512 7.11081 43.3512C7.63534 43.3512 8.06245 42.9241 8.06245 42.3996V39.732C11.9889 42.9391 16.9119 44.7 21.9923 44.7C28.4139 44.7 34.4984 41.9125 38.6871 37.057C44.5093 30.3056 45.6932 20.7817 41.6844 12.8015Z" fill="#18CDEA"/>
<path d="M7.79266 8.44797C11.5992 4.65642 16.6496 2.56582 22.0222 2.56582C26.5106 2.56582 30.8792 4.07195 34.4085 6.82195H32.1155C31.591 6.82195 31.1639 7.24906 31.1639 7.77358C31.1639 8.2981 31.591 8.72522 32.1155 8.72522H36.9187V8.45546L37.106 8.72522L37.3083 8.67276L37.2409 8.40301L37.4432 8.59783C37.5481 8.53039 37.638 8.44048 37.7279 8.3056L37.7954 8.17821L37.8628 7.96091V2.97794C37.8628 2.45342 37.4357 2.02631 36.9112 2.02631C36.3867 2.02631 35.9596 2.45342 35.9596 2.97794V5.65301C32.0331 2.45342 27.1176 0.700012 22.0522 0.700012C15.623 0.700012 9.53108 3.49497 5.33489 8.36554C-0.457342 15.1019 -1.64127 24.5958 2.31514 32.5461C2.47999 32.8683 2.8022 33.0706 3.16936 33.0706C3.31923 33.0706 3.4616 33.0331 3.59647 32.9732C3.82127 32.8608 3.99361 32.666 4.07604 32.4262C4.15846 32.1864 4.13598 31.9241 4.02358 31.6993C0.127127 23.9289 1.64075 14.5849 7.79266 8.44797Z" fill="#18CDEA"/>
<path d="M30.2649 23.1046C30.7819 23.2845 31.3289 23.3819 31.8834 23.3819C33.0299 23.3744 34.1538 22.9773 35.0455 22.2654C36.5367 21.119 37.4209 19.3206 37.2935 17.6871C37.1211 15.7988 36.1245 14.0903 34.5734 13.0038C33.4869 12.247 32.1756 11.8499 30.7819 11.8499C30.0026 11.8499 29.1858 11.9698 28.3466 12.2096C23.6858 13.5433 22.4645 17.6796 22.1423 19.7552C21.0857 18.4664 21.3555 17.5072 22.427 14.45C22.989 12.809 22.6743 11.0181 21.5878 9.66936C20.5237 8.26814 18.8977 7.39893 17.3391 7.39893C17.2342 7.39893 17.1293 7.40642 17.0169 7.41391C15.1286 7.58626 13.4202 8.58285 12.3337 10.1339C11.5019 11.3254 10.6852 13.3785 11.5394 16.3608C12.8732 21.0215 17.0019 22.2429 19.085 22.5651C18.5006 23.0447 18.0135 23.232 17.3991 23.232C16.5673 23.232 15.4733 22.8724 13.7649 22.2804C13.2403 22.1006 12.6933 22.0106 12.1388 22.0106C10.9924 22.0106 9.86841 22.4078 8.98421 23.1196C7.49307 24.2661 6.60887 26.0645 6.73625 27.698C6.9086 29.5863 7.90519 31.2947 9.46377 32.3812C10.5578 33.1305 11.8316 33.5277 13.2478 33.5277C13.2478 33.5277 13.2478 33.5277 13.2553 33.5277C14.0796 33.5277 14.9113 33.4078 15.7131 33.1755C20.3589 31.8342 21.5803 27.7055 21.9025 25.6149C22.914 26.8438 22.7342 27.7205 21.6177 30.9275C21.0557 32.5685 21.3705 34.3594 22.457 35.7007C23.4685 37.0645 25.0196 37.8887 26.7131 37.9636L26.8705 37.9711L27.0428 37.9636C28.9311 37.7913 30.6395 36.7947 31.726 35.2436C32.5578 34.0522 33.3745 31.9991 32.5203 29.0168C31.1865 24.3485 27.0503 23.1196 24.9672 22.7974C25.5517 22.3254 26.0387 22.1305 26.6457 22.1305C27.4624 22.153 28.5564 22.5127 30.2649 23.1046ZM20.0666 24.7307C20.0142 25.6673 19.5196 30.0958 15.1586 31.3472C14.4992 31.5345 13.8548 31.6319 13.2478 31.6319C12.2213 31.6319 11.3146 31.3621 10.5353 30.8226C9.4413 30.0658 8.74443 28.8669 8.60955 27.5481C8.53462 26.5515 9.14157 25.3751 10.1307 24.6183C10.6852 24.1612 11.397 23.9064 12.1164 23.9064C12.4611 23.9064 12.7982 23.9589 13.1205 24.0713C14.8289 24.6632 16.1852 25.1353 17.3841 25.1353C18.2383 25.1353 19.0026 24.8955 19.7594 24.3935C19.8568 24.5209 19.9617 24.6333 20.0666 24.7307ZM13.3602 15.8437C12.8432 14.0529 13.0305 12.4568 13.8848 11.2279C14.6416 10.1339 15.8405 9.42958 17.1593 9.3022L17.3241 9.2947C18.2908 9.2947 19.3773 9.89416 20.0891 10.8233C20.7785 11.6625 20.9808 12.779 20.6361 13.8131C19.632 16.698 19.0101 18.4814 20.3064 20.4521C20.1865 20.542 20.0741 20.6469 19.9692 20.7518C19.0251 20.6918 14.6116 20.2048 13.3602 15.8437ZM22.0074 21.7709V21.5011L22.0149 21.7709C22.5169 21.7709 22.929 22.183 22.929 22.685C22.929 22.9323 22.8316 23.1646 22.6593 23.3369C22.4869 23.5093 22.2546 23.6067 22.0074 23.6067C21.5053 23.6067 21.0932 23.1946 21.0857 22.6925C21.0932 22.1905 21.5053 21.7784 22.0074 21.7709ZM23.4011 31.5794C24.4052 28.6871 25.0271 26.9037 23.7308 24.9405C23.8507 24.8506 23.9556 24.7532 24.0605 24.6482C24.9972 24.7007 29.4256 25.1952 30.677 29.5488C31.194 31.3397 31.0067 32.9357 30.1525 34.1646C29.3957 35.2586 28.1967 35.963 26.8779 36.0903L26.7131 36.0978C25.7465 36.0978 24.6675 35.5059 23.9481 34.5692C23.2587 33.7375 23.0564 32.591 23.4011 31.5794ZM23.9556 20.6469C24.0081 19.7102 24.4951 15.2893 28.8561 14.0454C29.5155 13.8581 30.16 13.7606 30.7594 13.7606C31.786 13.7606 32.7001 14.0304 33.4719 14.5699C34.566 15.3267 35.2703 16.5256 35.3977 17.8444C35.4726 18.841 34.8657 20.0175 33.8766 20.7743C33.3146 21.2314 32.6102 21.4861 31.8909 21.4861C31.5462 21.4861 31.209 21.4337 30.8868 21.3213C29.1784 20.7293 27.8296 20.2572 26.6232 20.2572C25.769 20.2572 25.0121 20.4895 24.2478 20.9916C24.1654 20.8642 24.068 20.7518 23.9556 20.6469Z" fill="#18CDEA"/>
</svg>
