<svg width="51" height="45" viewBox="0 0 51 45" fill="none" xmlns="http://www.w3.org/2000/svg">
<path d="M5.60634 14.567H1.42923C0.638051 14.567 0 15.205 0 15.9962V27.932C0 28.7232 0.638051 29.3612 1.42923 29.3612C2.22042 29.3612 2.85847 28.7232 2.85847 27.932V23.3465H5.61485C8.03944 23.355 10.0046 21.3898 10.0131 18.9653C10.0217 16.5407 8.05646 14.5755 5.63186 14.567C5.62336 14.567 5.61485 14.567 5.60634 14.567ZM5.60634 20.4881H2.85847V17.4254H5.61485C6.45708 17.4254 7.14617 18.106 7.15468 18.9482C7.15468 19.7905 6.47409 20.4796 5.63186 20.4881C5.61485 20.4881 5.61485 20.4881 5.60634 20.4881Z" fill="#F08F21"/>
<path d="M23.5059 15.9963C23.5059 15.2051 22.8679 14.567 22.0767 14.567C21.6173 14.567 21.1834 14.7882 20.9112 15.1625L17.789 19.5353L14.6668 15.1625C14.2074 14.5245 13.3141 14.3714 12.6761 14.8308C12.3018 15.103 12.0806 15.5284 12.0806 15.9963V27.9916C12.0806 28.7828 12.7186 29.4209 13.5098 29.4209C14.301 29.4209 14.939 28.7828 14.939 27.9916V20.4541L16.632 22.8277C17.0914 23.4657 17.9847 23.6188 18.6227 23.1594C18.7503 23.0659 18.8609 22.9553 18.9545 22.8277L20.6475 20.4541V27.9916C20.6475 28.7828 21.2855 29.4209 22.0767 29.4209C22.8679 29.4209 23.5059 28.7828 23.5059 27.9916V15.9963Z" fill="#F08F21"/>
<path d="M35.816 19.28C35.816 16.6768 33.7062 14.567 31.1029 14.567H30.7116C28.1084 14.567 25.9985 16.6768 25.9985 19.28V19.6969C25.9985 20.4881 26.6366 21.1261 27.4278 21.1261C28.219 21.1261 28.857 20.4881 28.857 19.6969V19.28C28.857 18.2506 29.6907 17.4254 30.7116 17.4254H31.1029C32.1323 17.4254 32.9575 18.2591 32.9575 19.28C32.9575 19.7479 32.7789 20.1988 32.4641 20.5391C32.4471 20.5646 32.4216 20.5817 32.4046 20.6072L27.0279 27.1919C26.526 27.8044 26.6196 28.7062 27.2321 29.1996C27.4873 29.4038 27.8021 29.5229 28.1339 29.5229H34.3868C35.178 29.5229 35.816 28.8848 35.816 28.0936C35.816 27.3025 35.178 26.6644 34.3868 26.6644H31.1455L34.591 22.4448C35.3821 21.577 35.816 20.454 35.816 19.28Z" fill="#F08F21"/>
<path d="M38.4784 29.5229C39.2208 29.5229 39.8226 28.9211 39.8226 28.1788C39.8226 27.4364 39.2208 26.8346 38.4784 26.8346C37.7361 26.8346 37.1343 27.4364 37.1343 28.1788C37.1343 28.9211 37.7361 29.5229 38.4784 29.5229Z" fill="#F08F21"/>
<path d="M45.4715 20.0117H43.9317V17.4254H47.5388C48.33 17.4254 48.9681 16.7874 48.9681 15.9962C48.9681 15.205 48.33 14.567 47.5388 14.567H42.5025C41.7113 14.567 41.0732 15.205 41.0732 15.9962V21.4409C41.0732 22.2321 41.7113 22.8701 42.5025 22.8701H45.4715C46.5094 22.8701 47.3517 23.7124 47.3517 24.7502C47.3517 25.7881 46.5094 26.6304 45.4715 26.6304H42.5025C41.7113 26.6304 41.0732 27.2684 41.0732 28.0596C41.0732 28.8508 41.7113 29.4888 42.5025 29.4888H45.4715C48.0833 29.4888 50.2101 27.3705 50.2101 24.7502C50.2101 22.13 48.0918 20.0117 45.4715 20.0117Z" fill="#F08F21"/>
<path d="M25.1052 10.1517C26.1107 10.1517 26.9258 9.33661 26.9258 8.33113C26.9258 7.32566 26.1107 6.51056 25.1052 6.51056C24.0998 6.51056 23.2847 7.32566 23.2847 8.33113C23.2847 9.33661 24.0998 10.1517 25.1052 10.1517Z" fill="#F08F21"/>
<path d="M38.9041 10.1517C39.9095 10.1517 40.7246 9.33661 40.7246 8.33113C40.7246 7.32566 39.9095 6.51056 38.9041 6.51056C37.8986 6.51056 37.0835 7.32566 37.0835 8.33113C37.0835 9.33661 37.8986 10.1517 38.9041 10.1517Z" fill="#F08F21"/>
<path d="M11.3064 10.1517C12.3119 10.1517 13.127 9.33661 13.127 8.33113C13.127 7.32566 12.3119 6.51056 11.3064 6.51056C10.3009 6.51056 9.48584 7.32566 9.48584 8.33113C9.48584 9.33661 10.3009 10.1517 11.3064 10.1517Z" fill="#F08F21"/>
<path d="M18.2053 4.34116C19.2108 4.34116 20.0259 3.52606 20.0259 2.52058C20.0259 1.51511 19.2108 0.700012 18.2053 0.700012C17.1999 0.700012 16.3848 1.51511 16.3848 2.52058C16.3848 3.52606 17.1999 4.34116 18.2053 4.34116Z" fill="#F08F21"/>
<path d="M32.0047 4.34116C33.0101 4.34116 33.8252 3.52606 33.8252 2.52058C33.8252 1.51511 33.0101 0.700012 32.0047 0.700012C30.9992 0.700012 30.1841 1.51511 30.1841 2.52058C30.1841 3.52606 30.9992 4.34116 32.0047 4.34116Z" fill="#F08F21"/>
<path d="M25.1052 38.8895C26.1107 38.8895 26.9258 38.0744 26.9258 37.0689C26.9258 36.0634 26.1107 35.2484 25.1052 35.2484C24.0998 35.2484 23.2847 36.0634 23.2847 37.0689C23.2847 38.0744 24.0998 38.8895 25.1052 38.8895Z" fill="#F08F21"/>
<path d="M11.3064 38.8895C12.3119 38.8895 13.127 38.0744 13.127 37.0689C13.127 36.0634 12.3119 35.2484 11.3064 35.2484C10.3009 35.2484 9.48584 36.0634 9.48584 37.0689C9.48584 38.0744 10.3009 38.8895 11.3064 38.8895Z" fill="#F08F21"/>
<path d="M38.9041 38.8895C39.9095 38.8895 40.7246 38.0744 40.7246 37.0689C40.7246 36.0634 39.9095 35.2484 38.9041 35.2484C37.8986 35.2484 37.0835 36.0634 37.0835 37.0689C37.0835 38.0744 37.8986 38.8895 38.9041 38.8895Z" fill="#F08F21"/>
<path d="M32.0047 44.7C33.0101 44.7 33.8252 43.8849 33.8252 42.8794C33.8252 41.8739 33.0101 41.0588 32.0047 41.0588C30.9992 41.0588 30.1841 41.8739 30.1841 42.8794C30.1841 43.8849 30.9992 44.7 32.0047 44.7Z" fill="#F08F21"/>
<path d="M18.2053 44.7C19.2108 44.7 20.0259 43.8849 20.0259 42.8794C20.0259 41.8739 19.2108 41.0588 18.2053 41.0588C17.1999 41.0588 16.3848 41.8739 16.3848 42.8794C16.3848 43.8849 17.1999 44.7 18.2053 44.7Z" fill="#F08F21"/>
</svg>
