<svg width="44" height="45" viewBox="0 0 44 45" fill="none" xmlns="http://www.w3.org/2000/svg">
<path d="M28.7542 19.0608L22.9884 28.8477C22.6814 28.8477 22.3819 28.7728 22 28.7728C19.8733 28.7728 18.2035 30.4427 18.2035 32.5693C18.2035 34.6959 19.8733 36.3658 22 36.3658C24.1266 36.3658 25.7964 34.6959 25.7964 32.5693C25.7964 31.3562 25.1899 30.2929 24.3512 29.6115L29.8924 20.2065C31.4125 21.9512 32.3934 24.1527 32.5507 26.5788C32.5507 26.9607 32.9326 27.2602 33.307 27.2602H35.8829C36.2648 27.2602 36.4894 27.0356 36.6392 26.7286C37.0211 25.4406 37.1708 24.0703 37.1708 22.7075C37.1708 14.3583 30.3417 7.53662 22 7.53662C13.6582 7.53662 6.8291 14.3508 6.8291 22.7C6.8291 24.0628 6.97886 25.4331 7.36076 26.7211C7.43564 27.0281 7.74265 27.2528 8.11705 27.2528H10.6181C11 27.2528 11.3744 26.9457 11.3744 26.5713C11.7563 20.9553 16.3839 16.6346 21.9925 16.6346C24.5759 16.6272 26.9346 17.5407 28.7542 19.0608ZM22 34.8382C20.712 34.8382 19.7236 33.8498 19.7236 32.5618C19.7236 31.2739 20.712 30.2854 22 30.2854C23.2879 30.2854 24.2763 31.2739 24.2763 32.5618C24.2763 33.8498 23.2879 34.8382 22 34.8382ZM17.2974 16.103L15.096 11.0186C15.096 11.0186 15.0959 10.9437 15.0211 10.9437C16.8407 9.88039 18.9673 9.19898 21.1688 9.04921V15.1221C19.8733 15.2643 18.5105 15.5713 17.2974 16.103ZM22.7563 15.1146V9.04173C25.0326 9.19149 27.0844 9.79802 28.904 10.9362C28.904 10.9362 28.904 11.0111 28.8291 11.0111L26.6276 16.0955C25.4894 15.5713 24.1266 15.2643 22.7563 15.1146ZM35.3512 25.7327H34.0633C33.8386 23.9879 33.2321 22.393 32.3934 20.9553L35.1266 18.9035C35.5085 20.1166 35.6582 21.3297 35.6582 22.7C35.6582 23.7633 35.5085 24.7517 35.3512 25.7327ZM34.5949 17.4658C34.52 17.4658 34.4452 17.5407 34.4452 17.5407L31.4874 19.7422C31.2627 19.4352 30.9557 19.1357 30.6562 18.8287L31.7195 17.0091C31.9441 16.6272 31.7944 16.1779 31.4125 15.9457C31.0306 15.7136 30.5813 15.8709 30.3492 16.2528L29.4356 17.7728C28.9789 17.3909 28.4472 17.0914 27.9904 16.7844L30.1171 11.8498C32.1688 13.295 33.6814 15.1894 34.5949 17.4658ZM9.93666 25.7327H8.64871C8.42406 24.7442 8.3417 23.7633 8.3417 22.7C8.3417 21.412 8.56634 20.1241 8.87335 18.9035L11.6065 20.9553C10.7678 22.393 10.1613 23.9879 9.93666 25.7327ZM12.5126 19.7422L9.55477 17.5407C9.47988 17.4658 9.47988 17.4658 9.405 17.4658C10.3186 15.1894 11.906 13.295 13.808 11.7749L15.9271 16.7095C14.5643 17.5407 13.4261 18.5291 12.5126 19.7422Z" fill="#F08F21"/>
<path d="M40.211 37.1146H35.4336C39.2975 33.5502 41.7236 28.391 41.7236 22.7C41.7236 11.8498 32.8502 2.97639 22 2.97639C21.1688 2.97639 20.3302 3.05127 19.499 3.12615C18.8924 1.68095 17.5296 0.700012 15.9346 0.700012H15.1784C13.5085 0.700012 12.1457 2.06284 12.1457 3.73269C12.1457 4.33922 12.3703 4.87088 12.7522 5.25277C11.921 5.70954 11.1572 6.16632 10.401 6.77285H0.756297C0.299524 6.77285 0 7.07986 0 7.52915C0 7.98592 0.307012 8.28544 0.756297 8.28544H8.57386C4.70252 11.8498 2.27638 17.0091 2.27638 22.7C2.27638 33.5502 11.1498 42.4236 22 42.4236C26.3281 42.4236 30.3492 40.9784 33.6065 38.6272H40.2035C41.4915 38.6272 42.4799 39.6156 42.4799 40.9036C42.4799 42.1915 41.4915 43.1799 40.2035 43.1799H39.4472C38.6161 43.1799 37.9272 42.4985 37.9272 41.6598C37.9272 41.2031 38.2342 40.9036 38.6835 40.9036C39.1327 40.9036 39.4398 40.5965 39.4398 40.1473C39.4398 39.698 39.1327 39.391 38.6835 39.391C37.3955 39.391 36.4071 40.3794 36.4071 41.6673C36.4071 43.3372 37.7699 44.7 39.4398 44.7H40.1961C42.3227 44.7 43.9925 43.0302 43.9925 40.9036C43.9925 38.7769 42.3302 37.1146 40.211 37.1146ZM14.4146 4.48898C13.9578 4.48898 13.6583 4.18197 13.6583 3.73269C13.6583 2.90151 14.3397 2.21261 15.1784 2.21261H15.9346C16.7658 2.21261 17.5296 2.66938 17.904 3.42568C16.6909 3.65781 15.5528 4.0397 14.4146 4.48898ZM18.1287 4.87088C17.9789 5.93418 17.0654 6.76536 15.9272 6.76536H13.194C14.7141 5.93419 16.3839 5.25277 18.1287 4.87088ZM22 40.911C11.9884 40.911 3.78897 32.7116 3.78897 22.7C3.78897 16.8593 6.59701 11.6251 10.9176 8.28544H15.9272C17.9789 8.28544 19.6413 6.69048 19.7236 4.64623C20.4799 4.57135 21.2437 4.49647 22 4.49647C32.0116 4.49647 40.211 12.6884 40.211 22.7075C40.211 28.5482 37.403 33.7824 33.0824 37.1221H18.9673C18.5106 37.1221 18.211 37.4291 18.211 37.8784C18.211 38.3276 18.518 38.6347 18.9673 38.6347H30.806C28.2226 40.0724 25.1899 40.911 22 40.911Z" fill="#F08F21"/>
</svg>
